<?xml version="1.0" encoding="utf-8"?>
<!-- Generator: Adobe Illustrator 25.0.1, SVG Export Plug-In . SVG Version: 6.00 Build 0)  -->
<svg version="1.1" id="Слой_1" xmlns="http://www.w3.org/2000/svg" xmlns:xlink="http://www.w3.org/1999/xlink" x="0px" y="0px"
	 viewBox="0 0 53.9 42.8" style="enable-background:new 0 0 53.9 42.8;" xml:space="preserve">
<style type="text/css">
	.st0{fill:#3164AF;}
</style>
<g>
	<path class="st0" d="M9.2,25.8c-0.3-0.3-0.7-0.4-1.2-0.4H5.7v0.5c0.4,0,0.6,0,0.6,0v0H8c0.4,0,0.6,0.1,0.8,0.2
		c0.2,0.2,0.3,0.4,0.3,0.7c0,0.3-0.1,0.6-0.3,0.7c-0.2,0.2-0.5,0.2-0.8,0.2l-2.3,0v2.6h0.5v-2.1H8c0.5,0,0.9-0.1,1.2-0.4
		c0.3-0.3,0.4-0.6,0.4-1C9.6,26.4,9.5,26.1,9.2,25.8z"/>
	<g>
		<path class="st0" d="M14.1,25.9v-0.5h-4.1v0.5C10.6,25.8,13.6,25.9,14.1,25.9z"/>
		<rect x="11.9" y="26.4" class="st0" width="0.5" height="3.9"/>
	</g>



	<g>
		<path class="st0" d="M16.3,27.9l-1.3-2.5h-0.6l1.6,3C16.2,28.2,16.3,28,16.3,27.9z"/>
		<path class="st0" d="M18.2,25.4l-1.9,3.9c-0.1,0.2-0.2,0.4-0.3,0.5c-0.1,0.1-0.3,0.1-0.5,0.1h-0.3v0.5h0.4c0.2,0,0.4,0,0.5-0.1
			c0.1-0.1,0.3-0.2,0.4-0.3c0.1-0.1,0.2-0.4,0.4-0.7l1.9-3.8H18.2z"/>
	</g>

</g>
</svg>
